<?xml version="1.0" standalone="no"?><!DOCTYPE svg PUBLIC "-//W3C//DTD SVG 1.1//EN" "http://www.w3.org/Graphics/SVG/1.1/DTD/svg11.dtd"><svg t="1619340835255" class="icon" viewBox="0 0 1127 1024" version="1.1" xmlns="http://www.w3.org/2000/svg" p-id="2602" xmlns:xlink="http://www.w3.org/1999/xlink" width="244.330078125" height="222"><defs><style type="text/css"></style></defs><path d="M51.2 102.4l1024 0 0 51.2-1024 0 0-51.2Z" p-id="2603"></path><path d="M0 211.4048l0 805.9904C0 1021.0304 3.2256 1024 7.2192 1024L1119.232 1024c3.9936 0 7.168-2.9696 7.168-6.6048L1126.4 211.4048C1126.4 207.7696 1123.1744 204.8 1119.232 204.8L7.2192 204.8C3.2256 204.8 0 207.7696 0 211.4048zM896 307.2C938.3936 307.2 972.8 341.6064 972.8 384 972.8 426.3936 938.3936 460.8 896 460.8S819.2 426.3936 819.2 384C819.2 341.6064 853.6064 307.2 896 307.2zM102.2976 901.632l309.0944-493.6192c3.7376-7.168 10.1376-7.1168 14.1312-0.2048l166.7584 287.9488c2.048 3.5328 6.5024 4.4544 9.7792 2.1504l141.4656-99.4816c6.6048-4.6592 15.4112-3.0208 19.8656 3.8912l257.0752 299.9808c4.352 6.8096 1.1776 12.3392-6.4512 12.3392L109.9264 914.6368C101.9904 914.6368 98.56 908.8512 102.2976 901.632z" p-id="2604"></path><path d="M102.4 0l921.6 0 0 51.2-921.6 0 0-51.2Z" p-id="2605"></path></svg>