<?xml version="1.0" standalone="no"?><!DOCTYPE svg PUBLIC "-//W3C//DTD SVG 1.1//EN" "http://www.w3.org/Graphics/SVG/1.1/DTD/svg11.dtd"><svg t="1619340856539" class="icon" viewBox="0 0 1252 1024" version="1.1" xmlns="http://www.w3.org/2000/svg" p-id="2737" xmlns:xlink="http://www.w3.org/1999/xlink" width="271.4296875" height="222"><defs><style type="text/css"></style></defs><path d="M1243.534222 1024c4.437333 0 7.964444-3.697778 7.964444-8.248889L1251.498667 8.248889C1251.555556 3.697778 1247.971556 0 1243.534222 0L7.964444 0C3.584 0 0 3.697778 0 8.248889l0 1007.502222C0 1020.302222 3.584 1024 7.964444 1024L1243.534222 1024zM995.555556 170.666667C1042.659556 170.666667 1080.888889 208.896 1080.888889 256 1080.888889 303.104 1042.659556 341.333333 995.555556 341.333333S910.222222 303.104 910.222222 256C910.222222 208.896 948.451556 170.666667 995.555556 170.666667zM113.664 888.035556 438.840889 261.063111l18.261333-35.271111c4.152889-7.964444 11.264-7.907556 15.701333-0.227556l185.287111 319.943111c2.275556 3.925333 7.224889 4.949333 10.865778 2.389333l157.184-110.535111c7.338667-5.176889 17.180444-3.356444 22.072889 4.323556l285.639111 447.089778c4.835556 7.566222 1.365333 13.710222-7.168 13.710222L122.140444 902.485333C113.322667 902.485333 109.511111 896.056889 113.664 888.035556z" p-id="2738"></path></svg>