<?xml version="1.0" standalone="no"?><!DOCTYPE svg PUBLIC "-//W3C//DTD SVG 1.1//EN" "http://www.w3.org/Graphics/SVG/1.1/DTD/svg11.dtd"><svg t="1619232139641" class="icon" viewBox="0 0 1024 1024" version="1.1" xmlns="http://www.w3.org/2000/svg" p-id="17686" xmlns:xlink="http://www.w3.org/1999/xlink" width="222" height="222"><defs><style type="text/css"></style></defs><path d="M84.802876 415.800783a42.395038 42.395038 0 0 0-42.395038 42.395038v515.820429a42.395038 42.395038 0 0 0 84.790076 0V458.195821a42.395038 42.395038 0 0 0-42.395038-42.395038zM932.703639 401.683235a42.395038 42.395038 0 0 0-42.395038 42.395038v529.937977a42.395038 42.395038 0 0 0 84.790076 0v-529.937977a42.395038 42.395038 0 0 0-42.395038-42.395038z" p-id="17687"></path><path d="M360.370624 465.275793m21.197519 0l254.370229 0q21.197519 0 21.197519 21.197519l0 211.97519q0 21.197519-21.197519 21.197519l-254.370229 0q-21.197519 0-21.197519-21.197519l0-211.97519q0-21.197519 21.197519-21.197519Z" p-id="17688"></path><path d="M529.950777 762.041059m21.197519 0l254.370228 0q21.197519 0 21.197519 21.197519l0 211.975191q0 21.197519-21.197519 21.197519l-254.370228 0q-21.197519 0-21.197519-21.197519l0-211.975191q0-21.197519 21.197519-21.197519Z" p-id="17689"></path><path d="M190.790472 762.041059m21.197519 0l254.370228 0q21.197519 0 21.197519 21.197519l0 211.975191q0 21.197519-21.197519 21.197519l-254.370228 0q-21.197519 0-21.197519-21.197519l0-211.975191q0-21.197519 21.197519-21.197519Z" p-id="17690"></path><path d="M1001.680366 166.348379L538.853735 1.2621a21.79105 21.79105 0 0 0-14.032758-0.211975L16.377285 166.645144A24.631517 24.631517 0 0 0 0.0128 190.301575v144.14313a23.953197 23.953197 0 0 0 23.105296 24.716307h971.227928a23.953197 23.953197 0 0 0 23.147691-24.589122V189.83523a24.631517 24.631517 0 0 0-15.813349-23.486851z" p-id="17691"></path></svg>